<svg xmlns="http://www.w3.org/2000/svg" width="42" height="42" viewBox="0 0 42 42"><path d="M24.292,29.053c4.092-.483,8.444-1.971,8.444-9.039a7.1,7.1,0,0,0-1.86-4.911,6.633,6.633,0,0,0-.224-4.835s-1.488-.484-4.984,1.86a18.023,18.023,0,0,0-4.65-.67,17.577,17.577,0,0,0-4.651.67c-3.534-2.343-5.022-1.86-5.022-1.86a6.634,6.634,0,0,0-.223,4.835,7.09,7.09,0,0,0-1.86,4.911c0,7.068,4.352,8.556,8.444,9.039a4.126,4.126,0,0,0-1.19,2.493c-1.042.446-3.758,1.3-5.394-1.525a3.792,3.792,0,0,0-2.79-1.86s-1.823-.037-.149,1.115a4.742,4.742,0,0,1,2.046,2.679s1.116,3.535,6.249,2.418v3.162c0,.484-.372,1.042-1.3.893a18.359,18.359,0,1,1,11.644,0c-.93.186-1.3-.372-1.3-.893v-5.1a4.3,4.3,0,0,0-1.228-3.386ZM42,21.019A21,21,0,1,0,21.019,42,21.012,21.012,0,0,0,42,21.019Z" fill="#353741" fill-rule="evenodd"/></svg>